<?xml version="1.0" encoding="UTF-8"?>
<svg xmlns="http://www.w3.org/2000/svg" width="79.336" height="69.422" viewBox="0 0 79.336 69.422"><path id="icon-leaf-regular" d="M75.359,33.237A2.081,2.081,0,0,0,73.438,32a2.186,2.186,0,0,0-1.906,1.109,20.445,20.445,0,0,1-17.96,10.1A22.381,22.381,0,0,1,48.4,42.6a26.871,26.871,0,0,0-6.226-.694,27.1,27.1,0,0,0-26.946,31.3C2.921,83.919.135,96.776.093,96.978A3.716,3.716,0,0,0,3,101.346a4.2,4.2,0,0,0,.744.076,3.732,3.732,0,0,0,3.642-2.969,38.209,38.209,0,0,1,10.213-17.5A27.179,27.179,0,0,0,52.2,94.523c16.3-5.39,27.161-22.032,27.161-41.852A48.843,48.843,0,0,0,75.359,33.237Zm-25.507,54.1-.2.067-.2.079A19.685,19.685,0,0,1,23.6,75.834c6.437-4.472,15.3-8.157,27.444-9.273a3.72,3.72,0,0,0-.674-7.41C38.447,60.235,29.354,63.6,22.3,67.866A19.8,19.8,0,0,1,42.029,49.224a19.587,19.587,0,0,1,4.5.478,29.82,29.82,0,0,0,6.9.809,28.332,28.332,0,0,0,17.588-5.94,35.613,35.613,0,0,1,.9,8.1C71.919,69.129,63.055,83.106,49.853,87.336Z" transform="translate(-0.021 -32)" fill="#fff"/></svg>