<?xml version="1.0" encoding="UTF-8"?>
<svg xmlns="http://www.w3.org/2000/svg" width="64.71" height="56.632" viewBox="0 0 64.71 56.632"><path id="icon-paw-solid" d="M32.366,56.254c-10.033,0-24.156,15.51-24.156,25.307-.111,4.412,3.269,7.053,8.962,7.053,6.169,0,10.252-3.173,15.194-3.173,4.993,0,9.089,3.173,15.194,3.173,5.575,0,9.068-2.639,9.068-7.047C56.522,71.776,42.4,56.254,32.366,56.254ZM13.759,54.661c-1.311-4.376-5.372-7.22-9.053-6.335s-5.6,5.147-4.286,9.521,5.372,7.23,9.053,6.346S15.061,59.035,13.759,54.661Zm10.707-2.629c3.9-1.027,5.861-6.207,4.361-11.8s-5.878-8.987-9.8-8.074c-3.9,1.027-5.861,6.207-4.361,11.8C16.173,49.44,20.547,53.068,24.465,52.032Zm35.571-3.7c-3.681-.771-7.742,1.959-9.053,6.335s.6,8.642,4.281,9.527c3.681.771,7.726-1.959,9.053-6.335,1.306-4.382-.717-8.642-4.281-9.527Zm-19.77,3.7c3.8,1.027,8.295-2.591,9.8-8.074S49.6,33.182,45.7,32.156c-3.8-1.027-8.295,2.591-9.8,8.074S36.36,51.008,40.266,52.032Z" transform="translate(-0.007 -31.981)" fill="#fff"/></svg>